<?xml version="1.0" standalone="no"?><!DOCTYPE svg PUBLIC "-//W3C//DTD SVG 1.1//EN"
  "http://www.w3.org/Graphics/SVG/1.1/DTD/svg11.dtd">
<svg t="1589707069449" class="icon" viewBox="0 0 1024 1024" version="1.1" xmlns="http://www.w3.org/2000/svg" p-id="1613"
     width="200" height="200">
  <defs>
    <style type="text/css"></style>
  </defs>
  <path
    d="M503.90239264 447.03144829L854.67358276 96.28707142a26.81326939 26.81326939 0 0 1 37.91396291 0l18.95698147 18.95698145a26.81326939 26.81326939 0 0 1 0 37.91396294L560.80015029 503.90239264 911.51771386 854.67358276a26.81326939 26.81326939 0 0 1 0 37.91396291l-18.95698147 18.95698147a26.81326939 26.81326939 0 0 1-37.91396291 0L503.90239264 560.80015029 153.15801581 911.51771386a26.81326939 26.81326939 0 0 1-37.91396294 0l-18.95698145-18.95698147a26.81326939 26.81326939 0 0 1 0-37.91396291l350.74437687-350.77119011-350.74437687-350.74437684a26.81326939 26.81326939 0 0 1 0-37.91396291l18.95698145-18.95698145a26.81326939 26.81326939 0 0 1 37.91396294 0l350.74437683 350.74437685z"
    p-id="1614"></path>
</svg>
